<svg width="1440" height="220" viewBox="0 0 1440 220" fill="none" xmlns="http://www.w3.org/2000/svg">
<path d="M-318 176.1L-252.133 154.15C-186.267 132.2 -54.5333 88.3 77.2 51.6709C208.933 15.5906 340.667 -14.5906 472.4 7.77094C604.133 29.3094 735.867 103.391 867.6 124.929C999.333 147.291 1131.07 117.109 1262.8 124.929C1394.53 132.2 1526.27 176.1 1592.13 198.05L1658 220H1592.13C1526.27 220 1394.53 220 1262.8 220C1131.07 220 999.333 220 867.6 220C735.867 220 604.133 220 472.4 220C340.667 220 208.933 220 77.2 220C-54.5333 220 -186.267 220 -252.133 220H-318V176.1Z" fill="#0099FF" fill-opacity="0.19"/>
</svg>
