<svg width="1440" height="220" viewBox="0 0 1440 220" fill="none" xmlns="http://www.w3.org/2000/svg">
<path d="M-317 176.1L-251.133 154.15C-185.267 132.2 -53.5333 88.3 78.2 51.6709C209.933 15.5906 341.667 -14.5906 473.4 7.77094C605.133 29.3094 736.867 103.391 868.6 124.929C1000.33 147.291 1132.07 117.109 1263.8 124.929C1395.53 132.2 1527.27 176.1 1593.13 198.05L1659 220H1593.13C1527.27 220 1395.53 220 1263.8 220C1132.07 220 1000.33 220 868.6 220C736.867 220 605.133 220 473.4 220C341.667 220 209.933 220 78.2 220C-53.5333 220 -185.267 220 -251.133 220H-317V176.1Z" fill="#0099FF"/>
</svg>
